<svg height="512" viewBox="0 0 64 64" width="512" xmlns="http://www.w3.org/2000/svg"><g id="flat"><path d="m5 16h2v7h-2z" fill="#7d8d9c"/><path d="m32 52v-28h-19c-3.012 1.148-5 4.585-5 8a7.988 7.988 0 0 0 3.883 6.85 8 8 0 0 0 6.117 13.15 7 7 0 0 0 14 0z" fill="#f27988"/><path d="m46 52a8 8 0 0 0 6.117-13.15 7.988 7.988 0 0 0 3.883-6.85c0-3.415-1.988-6.852-5-8h-19v28a7 7 0 0 0 14 0z" fill="#f98c96"/><g fill="#d9176c"><path d="m50.961 36.5a5.994 5.994 0 0 0 -1.561-10l-.8 1.833a3.992 3.992 0 0 1 .323 7.164 8.933 8.933 0 0 0 -2.923-.497v2a7.008 7.008 0 0 1 7 7h2a9 9 0 0 0 -4.039-7.5z"/><path d="m39 44v2a6.006 6.006 0 0 1 6 6h2a8.009 8.009 0 0 0 -8-8z"/><path d="m44 32a3 3 0 0 1 3-3v-2a5.006 5.006 0 0 0 -5 5 3 3 0 0 1 -3 3v2a5.006 5.006 0 0 0 5-5z"/><path d="m40 42v-2a3 3 0 0 1 -3-3 5 5 0 0 0 -10 0 3 3 0 0 1 -3 3v2a5.006 5.006 0 0 0 5-5 3 3 0 0 1 6 0 5.006 5.006 0 0 0 5 5z"/><path d="m46 39v2a3 3 0 0 1 3 3h2a5.006 5.006 0 0 0 -5-5z"/><path d="m39 54v2a4 4 0 0 0 4-4h-2a2 2 0 0 1 -2 2z"/><path d="m35 47h2v2h-2z"/><path d="m18 37v-2a8.933 8.933 0 0 0 -2.923.5 3.992 3.992 0 0 1 .323-7.164l-.8-1.836a5.995 5.995 0 0 0 -1.562 10 9 9 0 0 0 -4.038 7.5h2a7.008 7.008 0 0 1 7-7z"/><path d="m17 52h2a6.006 6.006 0 0 1 6-6v-2a8.009 8.009 0 0 0 -8 8z"/><path d="m20 32a5.006 5.006 0 0 0 5 5v-2a3 3 0 0 1 -3-3 5.006 5.006 0 0 0 -5-5v2a3 3 0 0 1 3 3z"/><path d="m18 39a5.006 5.006 0 0 0 -5 5h2a3 3 0 0 1 3-3z"/><path d="m23 52h-2a4 4 0 0 0 4 4v-2a2 2 0 0 1 -2-2z"/><path d="m26 50h2v2h-2z"/></g><path d="m32 5-27 11 8 8h38l10-8z" fill="#394d5c"/><path d="m13 18h38v6h-38z" fill="#7d8d9c"/><path d="m44 13h2v2h-2z" fill="#f4f4e6"/><path d="m40 13h2v2h-2z" fill="#f4f4e6"/><path d="m8 26-4 2v-5a2 2 0 0 1 2-2 2 2 0 0 1 2 2z" fill="#394d5c"/></g></svg>