<?xml version="1.0" encoding="iso-8859-1"?>
<!-- Generator: Adobe Illustrator 19.0.0, SVG Export Plug-In . SVG Version: 6.00 Build 0)  -->
<svg version="1.1" id="Layer_1" xmlns="http://www.w3.org/2000/svg" xmlns:xlink="http://www.w3.org/1999/xlink" x="0px" y="0px"
	 viewBox="0 0 512.065 512.065" style="enable-background:new 0 0 512.065 512.065;" xml:space="preserve">
<g transform="translate(0 -1)">
	<polygon style="fill:#546A79;" points="220.675,310.027 291.296,310.027 291.296,195.269 220.675,195.269 	"/>
	<polygon style="fill:#38454F;" points="105.917,212.862 388.399,212.862 388.399,1 105.917,1 	"/>
	<g transform="translate(0 0.007)">
		<path style="fill:#E6E7E8;" d="M388.401,212.859h44.138c9.746,0,17.655-7.91,17.655-17.655V18.653
			c0-9.746-7.91-17.655-17.655-17.655h-44.138V212.859z"/>
		<path style="fill:#38454F;" d="M176.539,442.377c-22.069,39.168-67.858,57.379-67.858,57.379
			c-184.294,61.431-83.518-107.22-59.595-153.935c0,0,29.246-62.34,83.315-62.34s61.793,17.655,61.793,17.655h123.674
			c0,0,7.724-17.655,61.793-17.655s83.306,62.34,83.306,62.34c23.94,46.716,124.707,215.367-59.586,153.935
			c0,0-45.789-18.211-67.858-57.379H176.539z"/>
		<path style="fill:#BDC3C7;" d="M419.298,93.687c7.309,0,13.241,5.932,13.241,13.241c0,7.318-5.932,13.241-13.241,13.241
			s-13.241-5.923-13.241-13.241C406.056,99.619,411.988,93.687,419.298,93.687"/>
		<path style="fill:#E64C3C;" d="M344.35,380.584h-17.655c-4.882,0-8.828-3.955-8.828-8.828v-17.655
			c0-4.873,3.946-8.828,8.828-8.828h17.655c4.882,0,8.828,3.955,8.828,8.828v17.655C353.177,376.629,349.231,380.584,344.35,380.584
			"/>
		<path style="fill:#F0C419;" d="M406.143,380.584h-17.655c-4.882,0-8.828-3.955-8.828-8.828v-17.655
			c0-4.873,3.946-8.828,8.828-8.828h17.655c4.882,0,8.828,3.955,8.828,8.828v17.655C414.97,376.629,411.024,380.584,406.143,380.584
			"/>
		<g>
			<path style="fill:#E64C3C;" d="M282.557,62.791c0-16.181-14.53-28.981-31.25-26.068c-10.92,1.907-19.756,11.043-21.407,22.007
				c-0.971,6.444,0.415,12.482,3.399,17.461c6.585,11.008,22.775,21.91,22.775,21.91s16.207-10.929,22.784-21.91
				C281.206,72.271,282.557,67.699,282.557,62.791"/>
			<path style="fill:#E64C3C;" d="M282.557,133.411c0,16.19-14.53,28.981-31.25,26.068c-10.92-1.907-19.756-11.043-21.407-22.007
				c-0.971-6.444,0.415-12.473,3.399-17.461c6.585-11.008,22.775-21.91,22.775-21.91s16.207,10.929,22.784,21.91
				C281.206,123.93,282.557,128.503,282.557,133.411"/>
		</g>
		<g>
			<path style="fill:#BF392E;" d="M317.453,93.333c-1.907-10.92-11.043-19.756-22.007-21.407
				c-5.729-0.865-11.079,0.212-15.704,2.534c-0.291,0.583-0.556,1.174-0.892,1.73c-6.568,10.982-22.775,21.91-22.775,21.91
				s16.207,10.929,22.775,21.91c0.344,0.574,0.618,1.192,0.909,1.783c3.513,1.748,7.433,2.79,11.626,2.79
				C307.575,124.583,320.366,110.061,317.453,93.333"/>
			<path style="fill:#BF392E;" d="M233.298,120.014c6.585-11.017,22.775-21.91,22.775-21.91s-16.19-10.902-22.775-21.91
				c-0.327-0.547-0.547-1.148-0.847-1.713c-4.634-2.339-10.002-3.416-15.748-2.56c-10.964,1.651-20.1,10.496-22.007,21.416
				c-2.913,16.728,9.878,31.25,26.068,31.25c4.22,0,8.157-1.05,11.67-2.816C232.733,121.189,232.962,120.571,233.298,120.014"/>
		</g>
		<g>
			<path style="fill:#546A79;" d="M141.315,186.377h-35.31c-4.882,0-8.828-3.955-8.828-8.828c0-4.873,3.946-8.828,8.828-8.828h35.31
				c4.882,0,8.828,3.955,8.828,8.828C150.143,182.422,146.197,186.377,141.315,186.377"/>
			<path style="fill:#546A79;" d="M158.97,151.066h-52.966c-4.882,0-8.828-3.955-8.828-8.828c0-4.873,3.946-8.828,8.828-8.828
				h52.966c4.882,0,8.828,3.955,8.828,8.828C167.798,147.112,163.852,151.066,158.97,151.066"/>
			<polygon style="fill:#546A79;" points="185.453,345.273 158.97,345.273 158.97,318.79 123.66,318.79 123.66,345.273 
				97.177,345.273 97.177,380.584 123.66,380.584 123.66,407.066 158.97,407.066 158.97,380.584 185.453,380.584 			"/>
		</g>
		<path style="fill:#E6E7E8;" d="M79.436,212.859h26.483V0.997H79.436c-9.746,0-17.655,7.91-17.655,17.655v176.552
			C61.78,204.95,69.69,212.859,79.436,212.859"/>
	</g>
</g>
<g>
</g>
<g>
</g>
<g>
</g>
<g>
</g>
<g>
</g>
<g>
</g>
<g>
</g>
<g>
</g>
<g>
</g>
<g>
</g>
<g>
</g>
<g>
</g>
<g>
</g>
<g>
</g>
<g>
</g>
</svg>
