<svg height="512" viewBox="0 0 58 59" width="512" xmlns="http://www.w3.org/2000/svg"><g id="Page-1" fill="none" fill-rule="evenodd"><g id="013---Study" fill-rule="nonzero"><path id="Shape" d="m57 50h-35c-.5522847 0-1 .4477153-1 1v7c0 .5522847.4477153 1 1 1h35c.5522847 0 1-.4477153 1-1v-7c0-.5522847-.4477153-1-1-1z" fill="#c03a2b"/><path id="Shape" d="m16 14h-7c-.55228475 0-1 .4477153-1 1v43c0 .5522847.44771525 1 1 1h7c.5522847 0 1-.4477153 1-1v-43c0-.5522847-.4477153-1-1-1z" fill="#33907c"/><path id="Shape" d="m7 25h-6c-.55228475 0-1 .4477153-1 1v32c0 .5522847.44771525 1 1 1h6c.55228475 0 1-.4477153 1-1v-32c0-.5522847-.44771525-1-1-1z" fill="#e57e25"/><path id="Shape" d="m50.71 10.74c-1.3814428-2.28347704-3.3093582-4.18733641-5.61-5.54-6.9472172-4.06716951-15.8356416-2.32652636-20.7355481 4.06069606-4.8999065 6.38722244-4.2786407 15.42314824 1.449333 21.07964994s14.7709876 6.1642674 21.0961855 1.1845519c6.3251979-4.9797154 7.9541047-13.8892939 3.8000296-20.7848979z" fill="#3b97d3"/><path id="Rectangle-path" d="m36 39h2v6h-2z" fill="#d25627"/><path id="Shape" d="m37.029 40.013c-4.4813999-.0612921-8.8569296-1.3710074-12.635-3.782-.4395383-.3019159-.5648542-.8956052-.2848325-1.3494058.2800216-.4538006.8668593-.6080492 1.3338325-.3505942 6.865 4.228 14.442 4.619 20.791 1.074 6.1581736-3.4244374 9.9154972-9.975689 9.7615974-17.0202748-.1538998-7.0445857-4.1937464-13.42549618-10.4955974-16.5777252-.4934664-.24852814-.6920281-.85003358-.4435-1.3435s.8500336-.69202814 1.3435-.4435c6.9653174 3.48168149 11.4314655 10.5325304 11.6027772 18.3176704.1713117 7.7851401-3.9803563 15.0256236-10.7857772 18.8103296-3.110312 1.7496818-6.6193279 2.6675781-10.188 2.665z" fill="#f29c1f"/><path id="Shape" d="m29 26.41v2.09c-.0021656.3142421-.1499057.6097222-.4.8l-2.22 1.67c-3.2966146-2.9285196-5.2401803-7.0865072-5.3726523-11.4940401-.132472-4.4075328 1.5578675-8.6747405 4.6726523-11.7959599l2.92 2.92c.2501337.2474933.3492433.6096245.26.95l-.82 3.28c-.02584.1115299-.0734136.2168717-.14.31l-1.73 2.61c-.1098407.1624731-.1690041.353884-.17.55v4.29c.0020603.2621467.1060681.5132.29.7l2.42 2.42c.1839319.1868.2879397.4378533.29.7z" fill="#7ed09e"/><path id="Shape" d="m50.71 10.74-5.36 3.06c-.2231776.1315038-.4899232.1675505-.74.1l-3.37-.84c-.1575-.04-.3225-.04-.48 0l-3.12.78c-.3895848.0981796-.7999658-.0478213-1.04-.37l-2.08-2.78c-.2991776-.3949081-.2607422-.95008635.09-1.3l2.18-2.18c.134318-.13478707.3043047-.22845322.49-.27l7.82-1.74c2.3006418 1.35266359 4.2285572 3.25652296 5.61 5.54z" fill="#7ed09e"/><path id="Rectangle-path" d="m0 29h8v20h-8z" fill="#f29c1f"/><path id="Rectangle-path" d="m8 18h9v29h-9z" fill="#26b99a"/><path id="Rectangle-path" d="m8 47h9v5h-9z" fill="#81ccb8"/><path id="Rectangle-path" d="m0 49h8v5h-8z" fill="#fdd7ad"/><path id="Shape" d="m45.95 24.26-2.57.65c-.2434672.0525321-.4558676.2001324-.59.41l-3.49 5.23c-.1875613.2805574-.5025223.4492865-.84.45h-1.46c-.5522847 0-1-.4477153-1-1v-3.46c-.0007135-.3374777-.1694426-.6524387-.45-.84l-2.38-1.59c-.1122533-.0722726-.2077274-.1677467-.28-.28l-1.31-1.96c-.1507564-.2276812-.2018479-.5071093-.1414118-.7734055.060436-.2662963.2271421-.4962951.4614118-.6365945l3.78-2.27c.2046696-.1210456.4451134-.1670128.68-.13l5.49.92c.0989147.0085578.1946241.0393216.28.09l3.5 1.74c.2379304.1181657.4181805.3272559.5.58l.53 1.59c.0859025.2639682.0582154.5517661-.0764352.7945164-.1346505.2427503-.3641469.4186072-.6335648.4854836z" fill="#7ed09e"/><path id="Shape" d="m33 45h8c2.209139 0 4 1.790861 4 4 0 .5522847-.4477153 1-1 1h-14c-.5522847 0-1-.4477153-1-1 0-2.209139 1.790861-4 4-4z" fill="#f29c1f"/><path id="Rectangle-path" d="m32 50h22v9h-22z" fill="#e64c3c"/><path id="Rectangle-path" d="m27 50h5v9h-5z" fill="#fb7b76"/></g></g></svg>