<svg height="512" viewBox="0 0 64 64" width="512" xmlns="http://www.w3.org/2000/svg"><g id="Fill_Outline" data-name="Fill Outline"><circle cx="26" cy="33" fill="#a7325c" r="15"/><circle cx="26" cy="33" fill="#ffc569" r="12"/><path d="m26 21a11.967 11.967 0 0 0 -9.419 4.581 11.988 11.988 0 0 1 16.838 16.838 11.991 11.991 0 0 0 -7.419-21.419z" fill="#f06e7a"/><path d="m34.485 41.485a12 12 0 0 1 -16.97-16.97z" fill="#f06e7a"/><path d="m45.036 22.651 5.464-1.464 10.5-18.187-9.32 3.428a37.287 37.287 0 0 0 -7.089 3.505l.115 3.289-2.331-1.764a37.29 37.29 0 0 0 -6.685 6.368l1.284 4.789-3.384-1.954c-.464.691-.912 1.394-1.33 2.119a7.5 7.5 0 0 0 12.99 7.5l2.583-4.475z" fill="#92e5eb"/><path d="m60.871 3.223-9.682 10.111a44.215 44.215 0 0 0 -6.356 8.471l-2.583 4.475a7.494 7.494 0 0 1 -10.65 2.483 7.491 7.491 0 0 0 13.65 1.517l2.583-4.475-2.8-3.154 5.467-1.464z" fill="#68cbf2"/><path d="m3 57v4l25-2.586v.586a2 2 0 0 0 2 2h2v-8.772a1 1 0 0 0 -1.2-.979z" fill="#80e1b8"/><path d="m32 52.228v8.772h2a2 2 0 0 0 2-2v-.586l25 2.586v-4l-27.8-5.751a1 1 0 0 0 -1.2.979z" fill="#80e1b8"/><path d="m3 59v2l25-2.586v.586a2 2 0 0 0 2 2h2v-3.088a4 4 0 0 0 -4.81-3.912z" fill="#3aba80"/><path d="m32 57.912v3.088h2a2 2 0 0 0 2-2v-.586l25 2.586v-2l-24.19-5a4 4 0 0 0 -4.81 3.912z" fill="#3aba80"/><path d="m58 57-26-5v-1.781a4 4 0 0 1 5.04-3.862l18.74 5.043a3 3 0 0 1 2.22 2.9z" fill="#92e5eb"/><path d="m6 57 26-5v-1.781a4 4 0 0 0 -5.04-3.862l-18.74 5.043a3 3 0 0 0 -2.22 2.9z" fill="#92e5eb"/><path d="m37.04 49.357a4 4 0 0 0 -4.856 2.678l25.791 4.965a3 3 0 0 0 -2.2-2.593z" fill="#34b2e4"/><path d="m26.96 49.357-18.74 5.043a3 3 0 0 0 -2.195 2.6l25.791-4.96a4 4 0 0 0 -4.856-2.683z" fill="#34b2e4"/><g fill="#2f2f31"><path d="m25.4 12.8 4 3a1 1 0 1 0 1.2-1.6l-1.2-.9a19.838 19.838 0 0 1 6.752 2.476c-.42.465-.838.932-1.234 1.417a.993.993 0 0 0 -.192.891l.658 2.458-1.294-.742a1 1 0 0 0 -1.331.309c-.529.789-.975 1.5-1.365 2.176a8.487 8.487 0 0 0 1.88 10.741l-4.068 7.048a1 1 0 1 0 1.732 1l4.016-6.956a8.429 8.429 0 0 0 3.787.921 8.531 8.531 0 0 0 7.375-4.254l2.584-4.48a1 1 0 0 0 -.118-1.163l-1.724-1.942 3.9-1.046a1 1 0 0 0 .607-.465l2.967-5.138a1 1 0 0 0 -1.733-1l-2.759 4.779-5.064 1.357a1 1 0 0 0 -.489 1.629l2.319 2.615-2.222 3.849a6.49 6.49 0 0 1 -8.406 2.62 98.444 98.444 0 0 1 21.393-25.115l-2.892 5.009a1 1 0 1 0 1.732 1l5.655-9.794c0-.006 0-.013.008-.019.013-.024.017-.05.029-.075a1.02 1.02 0 0 0 .079-.261c.005-.037.005-.073.007-.111a1.051 1.051 0 0 0 -.022-.244 1 1 0 0 0 -.027-.108.99.99 0 0 0 -.148-.282c-.007-.009-.009-.022-.017-.031v-.005l-.005-.008a1 1 0 0 0 -.272-.22c-.031-.017-.063-.027-.095-.041a.948.948 0 0 0 -.238-.072.9.9 0 0 0 -.115-.013.972.972 0 0 0 -.246.022.949.949 0 0 0 -.106.022c-.013 0-.026 0-.038.008l-9.326 3.428a38.312 38.312 0 0 0 -7.279 3.6 1 1 0 0 0 -.464.88l.041 1.188-.653-.5a1 1 0 0 0 -1.2-.007 38.542 38.542 0 0 0 -4.216 3.649 21.82 21.82 0 0 0 -7.942-2.992l.826-.413a1 1 0 0 0 -.894-1.79l-4 2a1 1 0 0 0 -.153 1.7zm16.975-.088 1.725 1.308a1 1 0 0 0 1.6-.832l-.095-2.712a36.345 36.345 0 0 1 6.415-3.109l3.814-1.4a100.4 100.4 0 0 0 -21.512 25.311 6.487 6.487 0 0 1 -1.2-8c.235-.408.494-.831.782-1.28l2.566 1.481a1 1 0 0 0 1.465-1.125l-1.149-4.29a36.329 36.329 0 0 1 5.589-5.352z"/><path d="m45.917 34.68a19.934 19.934 0 0 1 -3 8.951 1 1 0 1 0 1.683 1.069 21.949 21.949 0 0 0 3.306-9.853 1 1 0 1 0 -1.993-.167z"/><path d="m10.253 47.855a1 1 0 0 0 .747-1.662 19.967 19.967 0 0 1 5.806-30.961 1 1 0 1 0 -.921-1.775 21.967 21.967 0 0 0 -6.385 34.06 1 1 0 0 0 .753.338z"/><path d="m36.566 43.678a1 1 0 0 0 1.412-.088 15.872 15.872 0 0 0 3.22-5.633 1 1 0 1 0 -1.9-.618 13.807 13.807 0 0 1 -.727 1.763l-1.677-.968a1 1 0 0 0 -1 1.732l1.679.97a14.225 14.225 0 0 1 -1.092 1.43 1 1 0 0 0 .085 1.412z"/><path d="m27 19.037a14.008 14.008 0 0 1 2.734.466 1 1 0 1 0 .532-1.927 15.994 15.994 0 0 0 -13.556 28.436 1 1 0 0 0 1.161-1.628 13.982 13.982 0 0 1 -3.454-3.542l1.691-.976a1 1 0 1 0 -1-1.732l-1.681.97a13.921 13.921 0 0 1 -1.366-5.104h1.939a1 1 0 0 0 0-2h-1.949a13.853 13.853 0 0 1 1.371-5.107l1.686.973a1 1 0 1 0 1-1.732l-1.7-.98a14.11 14.11 0 0 1 3.742-3.742l.98 1.7a1 1 0 1 0 1.732-1l-.973-1.686a13.853 13.853 0 0 1 5.111-1.375v1.949a1 1 0 0 0 2 0z"/><path d="m26 24a1 1 0 0 0 -1 1v7.667l-2.8 3.733a1 1 0 1 0 1.6 1.2l3-4a1 1 0 0 0 .2-.6v-8a1 1 0 0 0 -1-1z"/><path d="m61.2 56.021-28.2-5.835a2.994 2.994 0 0 1 3.776-2.863l18.74 5.045a.974.974 0 0 0 .26.035 1 1 0 0 0 .26-1.966l-18.736-5.046a4.975 4.975 0 0 0 -4.342.86 5.027 5.027 0 0 0 -.958.976 5.027 5.027 0 0 0 -.958-.976 4.971 4.971 0 0 0 -4.342-.86l-18.74 5.046a4.005 4.005 0 0 0 -2.96 3.863v1.266l-2.2.456a1 1 0 0 0 -.8.978v4a1 1 0 0 0 1.1 1l13.07-1.357a1 1 0 1 0 -.206-1.989l-11.964 1.237v-2.077l27-5.586v3.772a1 1 0 0 0 2 0v-3.772l27 5.586v2.077l-23.9-2.472a1.02 1.02 0 0 0 -.773.252 1 1 0 0 0 -.33.743v.586a1 1 0 0 1 -1 1h-3.997a1 1 0 0 1 -1-1v-.586a1 1 0 0 0 -1.1-1l-7.953.823a1 1 0 0 0 .206 1.989l6.9-.713a3 3 0 0 0 2.947 2.487h4a3 3 0 0 0 2.955-2.482l23.945 2.482c.035 0 .069.005.1.005a1 1 0 0 0 1-1v-4.005a1 1 0 0 0 -.8-.979zm-54.2-1.721a2 2 0 0 1 1.48-1.931l18.74-5.045a2.994 2.994 0 0 1 3.78 2.862l-24 4.965z"/></g></g></svg>