<svg height="512" viewBox="0 0 60 49" width="512" xmlns="http://www.w3.org/2000/svg"><g id="Page-1" fill="none" fill-rule="evenodd"><g id="040---Truck" fill-rule="nonzero"><path id="Rectangle-path" d="m7 12h5v2h-5z" fill="#7f8284"/><path id="Rectangle-path" d="m48 11.999h5v2h-5z" fill="#7f8284"/><path id="Shape" d="m53 37v2c-.0032948 1.1032019-.8967981 1.9967052-2 2h-15v-1c0-.5522847-.4477153-1-1-1h-10c-.5522847 0-1 .4477153-1 1v1h-15c-1.10320187-.0032948-1.9967052-.8967981-2-2v-2c.0032948-1.1032019.89679813-1.9967052 2-2h42c1.1032019.0032948 1.9967052.8967981 2 2z" fill="#bdc3c7"/><path id="Shape" d="m16 41v4c0 1.6568542-1.3431458 3-3 3h-7c-1.65685425 0-3-1.3431458-3-3v-15c.00006093-.4731522.1132038-.939438.33-1.36 1.20494417.2637504 2.43677238.3845837 3.67.36 0 0 0 5 2 6-1.10320187.0032948-1.9967052.8967981-2 2v2c.0032948 1.1032019.89679813 1.9967052 2 2z" fill="#2c2f38"/><path id="Shape" d="m59 27s0 1.06-2.33 1.64c-1.2049442.2637504-2.4367724.3845837-3.67.36 0 0 0 5-2 6h-42c-2-1-2-6-2-6-1.23322762.0245837-2.46505583-.0962496-3.67-.36-2.33-.58-2.33-1.64-2.33-1.64 0-3.25 3.96-4.52 5.45-4.88.34440711-.0902978.61482627-.3569083.71-.7.68147057-2.163898 2.02450904-4.0595408 3.84-5.42h38c1.815491 1.3604592 3.1585294 3.256102 3.84 5.42.0951737.3430917.3655929.6097022.71.7 1.49.36 5.45 1.63 5.45 4.88z" fill="#e64c3c"/><path id="Shape" d="m57 30v15c0 1.6568542-1.3431458 3-3 3h-7c-1.6568542 0-3-1.3431458-3-3v-4h7c1.1032019-.0032948 1.9967052-.8967981 2-2v-2c-.0032948-1.1032019-.8967981-1.9967052-2-2 2-1 2-6 2-6 1.2332276.0245837 2.4650558-.0962496 3.67-.36.2167962.420562.3299391.8868478.33 1.36z" fill="#2c2f38"/><path id="Shape" d="m49 6v10h-4v-10c-.0032948-1.10320187-.8967981-1.9967052-2-2h-26c-1.1032019.0032948-1.9967052.89679813-2 2v10h-4v-10c0-3.3137085 2.6862915-6 6-6h26c3.3137085 0 6 2.6862915 6 6z" fill="#c03a2b"/><path id="Shape" d="m45 6v10h-30v-10c.0032948-1.10320187.8967981-1.9967052 2-2h26c1.1032019.0032948 1.9967052.89679813 2 2z" fill="#2fa8cc"/><path id="Shape" d="m43.35 4.03c-6.28.21-28.35 1.68-28.35 11.97v-10c.0032948-1.10320187.8967981-1.9967052 2-2h26c.1173244-.00037364.2344505.00966574.35.03z" fill="#67b9cc"/><rect id="Rectangle-path" fill="#e64c3c" height="6" rx="2" width="7" x="1" y="9"/><rect id="Rectangle-path" fill="#e64c3c" height="6" rx="2" transform="matrix(-1 0 0 -1 111 24)" width="7" x="52" y="9"/><rect id="Rectangle-path" fill="#f3d55b" height="6" rx="2" width="9" x="40" y="22"/><path id="Shape" d="m14 32h-2c-.5522847 0-1-.4477153-1-1s.4477153-1 1-1h2c.5522847 0 1 .4477153 1 1s-.4477153 1-1 1z" fill="#f29c1f"/><path id="Shape" d="m48 32h-2c-.5522847 0-1-.4477153-1-1s.4477153-1 1-1h2c.5522847 0 1 .4477153 1 1s-.4477153 1-1 1z" fill="#f29c1f"/><g fill="#c03a2b"><path id="Shape" d="m24 31c-.5522847 0-1-.4477153-1-1v-8c0-.5522847.4477153-1 1-1s1 .4477153 1 1v8c0 .5522847-.4477153 1-1 1z"/><path id="Shape" d="m28 31c-.5522847 0-1-.4477153-1-1v-8c0-.5522847.4477153-1 1-1s1 .4477153 1 1v8c0 .5522847-.4477153 1-1 1z"/><path id="Shape" d="m32 31c-.5522847 0-1-.4477153-1-1v-8c0-.5522847.4477153-1 1-1s1 .4477153 1 1v8c0 .5522847-.4477153 1-1 1z"/><path id="Shape" d="m36 31c-.5522847 0-1-.4477153-1-1v-8c0-.5522847.4477153-1 1-1s1 .4477153 1 1v8c0 .5522847-.4477153 1-1 1z"/></g><path id="Shape" d="m28.2 4-8 12h-2.4l8-12z" fill="#fff"/><path id="Shape" d="m34.2 4-8 12h-2.4l8-12z" fill="#fff"/><path id="Shape" d="m8 45v3h-2v-3c0-.5522847.44771525-1 1-1s1 .4477153 1 1z" fill="#393f4a"/><path id="Shape" d="m13 45v3h-2v-3c0-.5522847.4477153-1 1-1s1 .4477153 1 1z" fill="#393f4a"/><path id="Shape" d="m49 45v3h-2v-3c0-.5522847.4477153-1 1-1s1 .4477153 1 1z" fill="#393f4a"/><path id="Shape" d="m54 45v3h-2v-3c0-.5522847.4477153-1 1-1s1 .4477153 1 1z" fill="#393f4a"/><rect id="Rectangle-path" fill="#f3d55b" height="5" rx="1" width="12" x="24" y="39"/><path id="Shape" d="m59 49h-58c-.55228475 0-1-.4477153-1-1s.44771525-1 1-1h58c.5522847 0 1 .4477153 1 1s-.4477153 1-1 1z" fill="#7f8c8d"/><rect id="Rectangle-path" fill="#f3d55b" height="6" rx="2" width="9" x="11" y="22"/><path id="Shape" d="m18 29h-5c-1.6568542 0-3-1.3431458-3-3v-2c0-1.6568542 1.3431458-3 3-3h5c1.6568542 0 3 1.3431458 3 3v2c0 1.6568542-1.3431458 3-3 3zm-5-6c-.5522847 0-1 .4477153-1 1v2c0 .5522847.4477153 1 1 1h5c.5522847 0 1-.4477153 1-1v-2c0-.5522847-.4477153-1-1-1z" fill="#7f8c8d"/><path id="Shape" d="m47 29h-5c-1.6568542 0-3-1.3431458-3-3v-2c0-1.6568542 1.3431458-3 3-3h5c1.6568542 0 3 1.3431458 3 3v2c0 1.6568542-1.3431458 3-3 3zm-5-6c-.5522847 0-1 .4477153-1 1v2c0 .5522847.4477153 1 1 1h5c.5522847 0 1-.4477153 1-1v-2c0-.5522847-.4477153-1-1-1z" fill="#7f8c8d"/></g></g></svg>