<svg height="512" viewBox="0 0 64 64" width="512" xmlns="http://www.w3.org/2000/svg"><path d="m26 3 4.02 8.14 8.98 1.31-6.5 6.33 1.53 8.95-8.03-4.23-8.03 4.23 1.53-8.95-6.5-6.33 8.98-1.31z" fill="#f9e109"/><path d="m47 15 2.47 5.01 5.53.8-4 3.9.94 5.51-4.94-2.6-4.94 2.6.94-5.51-4-3.9 5.53-.8z" fill="#f9e109"/><path d="m9 20 1.85 3.76 4.15.6-3 2.92.71 4.13-3.71-1.95-3.71 1.95.71-4.13-3-2.92 4.15-.6z" fill="#f9e109"/><path d="m19.53 35a41 41 0 0 0 29.84 23.79l11.63 2.21-2.54-1a40.94 40.94 0 0 1 -23.33-25" fill="#f9e109"/><path d="m42.73 37a27.3 27.3 0 0 0 18.27 16.09l-2.12-1.71a17.42 17.42 0 0 1 -6.42-14.38" fill="#f9e109"/><path d="m4.75 38a24.56 24.56 0 0 0 18.07 14.67l7 1.33-1.53-.62a24.57 24.57 0 0 1 -14.14-15.38" fill="#f9e109"/><path d="m19.5 18.78-1.53 9 8-4.23 8 4.23-1.19-7a3.47 3.47 0 0 1 -2.18-.37 3.6 3.6 0 0 0 -3.32 0 3.56 3.56 0 0 1 -5.16-3.75 3.53 3.53 0 0 0 -1-3.14 3.54 3.54 0 0 1 -1-2.07l-7.12 1z" fill="#fcbc04"/><path d="m48 25.15a2.18 2.18 0 0 1 -3.17-2.3 2.21 2.21 0 0 0 -.63-1.94 2.12 2.12 0 0 1 -.5-.78l-4.7.68 4 3.9-.94 5.51 4.94-2.6 4.94 2.6-.82-4.83a2.1 2.1 0 0 1 -1.1-.24 2.23 2.23 0 0 0 -2.02 0z" fill="#fcbc04"/><path d="m3 24.36 3 2.92-.71 4.13 3.71-1.95 3.71 1.95-.71-4.13.26-.25a1.65 1.65 0 0 1 -.5-.17 1.63 1.63 0 0 0 -1.52 0 1.64 1.64 0 0 1 -2.39-1.73 1.61 1.61 0 0 0 -.47-1.45 1 1 0 0 1 -.12-.16l-.11.24z" fill="#fcbc04"/><path d="m54.07 58.76a40.87 40.87 0 0 1 -25.72-23.76h-8.82a41 41 0 0 0 29.84 23.79l11.63 2.21-.79-.32z" fill="#fcbc04"/><path d="m61 53.09-1.55-1.26a27.28 27.28 0 0 1 -10.96-14.83h-4.92a41.24 41.24 0 0 0 1.92 5.11 27.26 27.26 0 0 0 15.51 10.98z" fill="#fcbc04"/><path d="m9.66 38h-4.91a24.56 24.56 0 0 0 18.07 14.67l7 1.33-1.53-.62-.16-.08-4.56-1.75a24.52 24.52 0 0 1 -13.91-13.55z" fill="#fcbc04"/><g fill="#f9e109"><path d="m54 8h-1v-1a1 1 0 0 0 -2 0v1h-1a1 1 0 0 0 0 2h1v1a1 1 0 0 0 2 0v-1h1a1 1 0 0 0 0-2z"/><path d="m28 34h1a1 1 0 0 0 0-2h-1v-1a1 1 0 0 0 -2 0v1h-1a1 1 0 0 0 0 2h1v1a1 1 0 0 0 2 0z"/><path d="m31 42h-1v-1a1 1 0 0 0 -2 0v1h-1a1 1 0 0 0 0 2h1v1a1 1 0 0 0 2 0v-1h1a1 1 0 0 0 0-2z"/><path d="m12 55h-1v-1a1 1 0 0 0 -2 0v1h-1a1 1 0 0 0 0 2h1v1a1 1 0 0 0 2 0v-1h1a1 1 0 0 0 0-2z"/><path d="m8 37v1a1 1 0 0 0 2 0v-1h1a1 1 0 0 0 0-2h-1v-1a1 1 0 0 0 -2 0v1h-1a1 1 0 0 0 0 2z"/><path d="m49 34h-1v-1a1 1 0 0 0 -2 0v1h-1a1 1 0 0 0 0 2h1v1a1 1 0 0 0 2 0v-1h1a1 1 0 0 0 0-2z"/><path d="m45 7a1 1 0 0 0 0-2h-1v-1a1 1 0 0 0 -2 0v1h-1a1 1 0 0 0 0 2h1v1a1 1 0 0 0 2 0v-1z"/><path d="m60 28h-1v-1a1 1 0 0 0 -2 0v1h-1a1 1 0 0 0 0 2h1v1a1 1 0 0 0 2 0v-1h1a1 1 0 0 0 0-2z"/><path d="m5 16v1a1 1 0 0 0 2 0v-1h1a1 1 0 0 0 0-2h-1v-1a1 1 0 0 0 -2 0v1h-1a1 1 0 0 0 0 2z"/><circle cx="18" cy="6" r="1"/><circle cx="22" cy="31" r="1"/><circle cx="7" cy="6" r="1"/><circle cx="57" cy="37" r="1"/><circle cx="56" cy="15" r="1"/><circle cx="60" cy="21" r="1"/><circle cx="33" cy="5" r="1"/><circle cx="60" cy="4" r="1"/><circle cx="34" cy="48" r="1"/><circle cx="39" cy="52" r="1"/><circle cx="48" cy="41" r="1"/><circle cx="10" cy="43" r="1"/><circle cx="20" cy="59" r="1"/><circle cx="5" cy="48" r="1"/><circle cx="12" cy="9" r="1"/></g></svg>