<svg height="512" viewBox="0 0 64 64" width="512" xmlns="http://www.w3.org/2000/svg"><g id="flat"><path d="m3 11h58v35h-58z" fill="#394d5c"/><path d="m54 7h-44a2 2 0 0 0 -2 2v27a2 2 0 0 0 2 2h20a2 2 0 0 0 4 0h20a2 2 0 0 0 2-2v-27a2 2 0 0 0 -2-2z" fill="#f9bb4b"/><path d="m3 46h58a0 0 0 0 1 0 0v3a2 2 0 0 1 -2 2h-54a2 2 0 0 1 -2-2v-3a0 0 0 0 1 0 0z" fill="#7d8d9c"/><path d="m27 51h10l4 6h-18z" fill="#aabece"/><path d="m14 57h36v4h-36z" fill="#7d8d9c"/><path d="m23 3a33.008 33.008 0 0 0 -11 2v29s8-3 20 0v-28c-2-2-4-3-9-3z" fill="#f4f4e6"/><path d="m41 3c-5 0-7 1-9 3v28c12-3 20 0 20 0v-29a33.008 33.008 0 0 0 -11-2z" fill="#dddcca"/><path d="m56 41h2v2h-2z" fill="#aabece"/><path d="m52 41h2v2h-2z" fill="#aabece"/><path d="m6 41h2v2h-2z" fill="#aabece"/><g fill="#195c85"><path d="m26.005 11h2v-2h-5.005v-2h-2v2h-5v2h8a6.435 6.435 0 0 1 -2.263 3.945 18.055 18.055 0 0 1 -1.877-2.461l-1.714 1.031a19.436 19.436 0 0 0 1.974 2.625 18.469 18.469 0 0 1 -4.407 1.9l.574 1.916a20.009 20.009 0 0 0 5.284-2.365 10.264 10.264 0 0 0 4.187 2.377l.484-1.94a7.925 7.925 0 0 1 -3.062-1.684 8.2 8.2 0 0 0 2.825-5.344z"/><path d="m45.035 20.263 1.93-.526-3-11a1 1 0 0 0 -.965-.737h-2a1 1 0 0 0 -.965.737l-3 11 1.93.526 1.162-4.263h3.746zm-4.362-6.263 1.091-4h.472l1.091 4z"/><path d="m15 23h7v2h-7z"/><path d="m24 23h5v2h-5z"/><path d="m15 27h4v2h-4z"/><path d="m21 27h8v2h-8z"/><path d="m35 23h5v2h-5z"/><path d="m42 23h7v2h-7z"/><path d="m35 27h3v2h-3z"/><path d="m40 27h4v2h-4z"/><path d="m46 27h3v2h-3z"/></g></g></svg>