<svg height="512" viewBox="0 0 64 64" width="512" xmlns="http://www.w3.org/2000/svg"><g id="flat"><path d="m39.98 43.43a20.985 20.985 0 0 1 -7.98 1.57c-5.94 0-7.309-14.141-2.446-23.795 4.635-9.2 15.333-13.982 17.183-12.156a20.988 20.988 0 0 1 .453 29.451z" fill="#fcf05a"/><path d="m47.19 38.5a21.012 21.012 0 0 1 -7.21 4.93c3.99-15.73-3.58-26.07-5.1-27.64a17.174 17.174 0 0 1 5.12-4.83c1.82 1.89 9.74 12.53 7.19 27.54z" fill="#2d75bb"/><path d="m58.664 32.027a2.075 2.075 0 0 0 -1.664 2.08v4.893l-4 4-1-1a2.715 2.715 0 0 0 -4 0l-6 5a4.933 4.933 0 0 0 -2 4v10h9v-5l7-5 5-10v-7a2 2 0 0 0 -2.336-1.973z" fill="#ffd782"/><path d="m5.336 32.027a2.075 2.075 0 0 1 1.664 2.08v4.893l4 4 1-1a2.715 2.715 0 0 1 4 0l6 5a4.933 4.933 0 0 1 2 4v10h-9v-5l-7-5-5-10v-7a2 2 0 0 1 2.336-1.973z" fill="#ffd782"/><path d="m46.964 44.5h7.071v2h-7.071z" fill="#f9bb4b" transform="matrix(.707 -.707 .707 .707 -17.382 49.036)"/><path d="m12.5 41.964h2v7.071h-2z" fill="#f9bb4b" transform="matrix(.707 -.707 .707 .707 -28.219 22.873)"/><path d="m46.74 9.05c-12.76 2.13-14.74 14.95-14.74 14.95s-3.07 4.38-8 4.97a18.808 18.808 0 0 1 -6.94-.46 11.255 11.255 0 0 1 -6.06-4.51 21 21 0 0 1 21-21s6.69 1.11 6.75 1.13a21.072 21.072 0 0 1 7.99 4.92z" fill="#ffd782"/><path d="m38.75 4.13c-14.05 7.05-14.75 23.02-14.75 23.55a19.606 19.606 0 0 1 -7.08-.49c.41-2.93 3.82-19.31 15.08-24.19 0 0 0-.01.01 0a21.848 21.848 0 0 1 6.74 1.13z" fill="#2d75bb"/><path d="m34.21 39.05a21.606 21.606 0 0 1 -2.21 5.95 20.947 20.947 0 0 1 -17.13-8.87c-.02-.03-2.94-5.96-2.95-5.99l-.05-.2a20.761 20.761 0 0 1 -.87-5.94c12 7 21 0 21 0a21.884 21.884 0 0 1 2.4 7.23c.01.06-.19 7.8-.19 7.82z" fill="#f9bb4b"/><path d="m34.29 38.64-.07.36c0 .02-.01.03-.01.05-9.34 1.67-17.77-2.15-19.34-2.92-.02-.03-.12-.17-.12-.17a21.516 21.516 0 0 1 -2.83-5.82c2.24 1.02 11.87 4.78 22.48 1.09a22.629 22.629 0 0 1 -.11 7.41z" fill="#2d75bb"/></g></svg>